# xmcd
#
# Track frame offsets: 
#        150
#        16342
#        36453
#        60523
#        75743
#        94480
#        109590
#        130420
#        158997
#        181785
#        202818
#        222485
#
# Disc length: 3253 seconds
#
# Revision: 3
# Processed by: cddbd v1.5.2PL0 Copyright (c) Steve Scherf et al.
# Submitted via: ExactAudioCopy v0.99pb5
#
DISCID=a20cb30c
DTITLE=Eddie Torres And His Mambo Kings Orchestra - Dance City
DYEAR=1994
DGENRE=Salsa
TTITLE0=Ariñañara
TTITLE1=Remember Me 
TTITLE2=Pa' Gozar 
TTITLE3=Caravan
TTITLE4=Eres Mi Coco 
TTITLE5=Dance City 
TTITLE6=Llévatela 
TTITLE7=Tu Me Estas Volviendo Loco 
TTITLE8=Lo Que Traigo Es Sabroso 
TTITLE9=To Be With You 
TTITLE10=Mulato Rumbero 
TTITLE11=Hot and Heavy
EXTD=YEAR: 1994
EXTT0=
EXTT1=
EXTT2=
EXTT3=
EXTT4=
EXTT5=
EXTT6=
EXTT7=
EXTT8=
EXTT9=
EXTT10=
EXTT11=
PLAYORDER=
